<?xml version="1.0" encoding="UTF-8" standalone="no"?>
<!DOCTYPE svg PUBLIC "-//W3C//DTD SVG 1.1//EN" "http://www.w3.org/Graphics/SVG/1.1/DTD/svg11.dtd">
<svg width="100%" height="100%" viewBox="0 0 3300 2550" version="1.1" xmlns="http://www.w3.org/2000/svg" xmlns:xlink="http://www.w3.org/1999/xlink" xml:space="preserve" xmlns:serif="http://www.serif.com/" style="fill-rule:evenodd;clip-rule:evenodd;stroke-linecap:round;stroke-linejoin:round;stroke-miterlimit:1.5;">
    <path d="M1343.75,817.274C1340.27,819.013 1336.35,819.992 1332.2,819.992L1280.41,819.992C1266.12,819.992 1254.52,808.39 1254.52,794.1L1254.52,740.718C1254.52,726.428 1266.12,714.826 1280.41,714.826L1332.2,714.826C1346.49,714.826 1358.09,726.428 1358.09,740.718L1358.09,748.649L1511.41,761.237C1513.01,759.492 1514.77,758.03 1516.61,756.672C1517.91,755.711 1519.29,754.857 1520.62,753.829C1521.43,752.587 1522.53,751.525 1523.85,750.752C1527.69,746.883 1533.5,742.77 1540.17,738.186C1549.24,731.953 1560.13,724.583 1568.16,714.494C1570.96,710.98 1575.8,709.848 1579.87,711.758C1583.93,713.668 1586.15,718.12 1585.23,722.515C1584.45,726.208 1581.38,731.457 1576.98,736.305C1571.33,742.524 1563.73,748.227 1559.84,749.786C1554.86,751.777 1552.33,755.546 1547.74,758.414C1542.23,761.863 1538.8,764.051 1536.61,765.464C1534.36,767.785 1531.93,769.55 1529.51,771.262C1527.65,772.576 1525.65,773.683 1524.46,776.194C1522.9,779.468 1519.74,781.466 1516.36,781.697L1511.81,837.102C1520.46,834.364 1530.29,836.912 1536.45,844.308C1544.59,854.065 1543.27,868.589 1533.51,876.72C1529.32,880.214 1521.67,889.186 1512.67,900.971C1509.78,904.75 1506.76,908.819 1503.66,913.09C1505.82,916.77 1505.34,921.581 1502.21,924.771C1500.05,926.977 1498.04,929.087 1496.17,931.122C1495.94,931.737 1495.64,932.337 1495.28,932.913C1494.67,933.875 1493.92,934.694 1493.07,935.358C1491.61,937.388 1481.15,952.002 1471.89,965.799C1464.78,980.111 1458.49,997.295 1444.5,1026.15C1428.22,1083.97 1431.94,1117.86 1431.93,1118.61C1431.67,1131.31 1421.16,1141.41 1408.46,1141.15C1395.76,1140.9 1385.66,1130.38 1385.91,1117.68C1385.93,1116.86 1381.8,1078.94 1400.01,1014.25C1418.54,916.479 1485.33,861.85 1491.83,852.57C1492.66,851.382 1493.71,850.438 1494.89,849.753L1343.75,817.274Z" style="fill:rgb(127,107,230);"/>
    <path d="M1787.4,838.006L1685.67,838.006C1677.52,838.006 1670.91,831.396 1670.91,823.254L1670.91,793.751C1670.91,785.609 1677.52,778.999 1685.67,778.999L1798.55,778.999L1797.21,762.783L1957.12,749.655L1957.12,741.725C1957.12,727.435 1968.72,715.833 1983.01,715.833L2034.79,715.833C2049.08,715.833 2060.68,727.435 2060.68,741.725L2060.68,795.107C2060.68,809.397 2049.08,820.999 2034.79,820.999L1983.01,820.999C1978.86,820.999 1974.93,820.02 1971.46,818.281L1822.64,850.261C1823.32,850.812 1823.93,851.465 1824.45,852.214C1830.95,861.494 1897.74,916.124 1916.28,1013.89C1934.49,1078.58 1930.35,1116.5 1930.37,1117.33C1930.62,1130.03 1920.52,1140.55 1907.82,1140.8C1895.12,1141.05 1884.61,1130.95 1884.35,1118.25C1884.34,1117.51 1888.06,1083.61 1871.79,1025.8C1857.79,996.94 1851.5,979.756 1844.39,965.444C1835.13,951.647 1824.67,937.033 1823.21,935.002C1822.36,934.338 1821.61,933.52 1821,932.558C1820.64,931.982 1820.34,931.381 1820.11,930.767C1818.24,928.732 1816.23,926.621 1814.07,924.416C1810.94,921.226 1810.46,916.415 1812.62,912.734C1799.87,895.148 1788.31,880.979 1782.77,876.364C1773.02,868.233 1771.69,853.71 1779.83,843.952C1781.97,841.375 1784.57,839.387 1787.4,838.006ZM1788.73,749.825C1790.36,750.589 1791.8,751.818 1792.83,753.46L1794.95,758.011L1795.37,760.601L1795.14,763.515L1794.78,764.467L1795,765.977L1794.63,768.69L1793.58,771.446L1791.82,773.962L1789.51,775.946L1786.94,777.258L1784.36,777.948C1781.46,778.432 1777.16,778.151 1771.77,775.39C1764.41,771.618 1752.88,761.899 1738.38,740.594C1736.47,737.772 1736.23,734.275 1737.49,731.327C1736.79,730.893 1736.17,730.523 1735.71,730.245C1732.87,729.68 1730.32,727.859 1728.92,725.075C1726.53,720.291 1728.47,714.466 1733.26,712.074L1736.37,711.065L1739.7,711.086C1740.63,711.24 1742.91,711.799 1748.98,715.661C1752.13,717.664 1753.96,719.503 1755.45,721.301C1757.1,723.312 1757.69,725.387 1763.01,728.341C1764.43,729.134 1764.19,729.446 1779.23,740.725C1780.2,741.451 1784.54,743.87 1788.73,749.825Z" style="fill:rgb(127,107,230);"/>
    <g transform="matrix(1.65377,0,0,1,-1133.48,-1.82624)">
        <path d="M1747.81,759.858L1755.82,759.858C1765.78,759.858 1773.86,773.221 1773.86,789.681L1773.86,849.326C1773.86,865.786 1765.78,879.149 1755.82,879.149L1752.79,879.149L1752.79,888.171C1752.79,895.577 1749.15,901.589 1744.67,901.589L1632.42,901.589C1627.95,901.589 1624.31,895.577 1624.31,888.171L1624.31,879.149L1618.96,879.149C1609.01,879.149 1600.93,865.786 1600.93,849.326L1600.93,789.681C1600.93,773.221 1609.01,759.858 1618.96,759.858L1627.1,759.858L1627.1,749.416C1627.1,741.391 1630.53,734.679 1635.09,733.065C1635.07,732.493 1635.05,731.917 1635.05,731.339C1635.05,707.653 1658.56,688.423 1687.51,688.423C1716.45,688.423 1739.96,707.653 1739.96,731.339C1739.96,731.929 1739.94,732.516 1739.91,733.1C1744.43,734.775 1747.81,741.448 1747.81,749.416L1747.81,759.858Z" style="fill:rgb(127,107,230);stroke:rgb(127,107,230);stroke-width:14.18px;"/>
    </g>
    <g transform="matrix(1.2053,0,0,1.03646,-271.951,-24.1006)">
        <path d="M1935.06,687.641L1911.65,687.641L1911.65,716.09L1868.65,716.09L1868.65,687.641L1849.72,687.641C1836.3,691.493 1817.55,693.888 1796.81,693.888C1756.04,693.888 1722.95,684.635 1722.95,673.239C1722.95,661.842 1756.04,652.59 1796.81,652.59C1814.55,652.59 1830.84,654.342 1843.58,657.261L1868.87,657.261C1872.09,646.507 1880.53,638.823 1890.43,638.823C1900.34,638.823 1908.78,646.507 1912,657.261L1936.35,657.261C1949.12,653.973 1966.01,651.972 1984.52,651.972C2024.31,651.972 2056.62,661.225 2056.62,672.621C2056.62,684.017 2024.31,693.27 1984.52,693.27C1965.38,693.27 1947.97,691.13 1935.06,687.641ZM1272.94,687.276C1259.84,691.129 1241.54,693.523 1221.29,693.523C1181.5,693.523 1149.19,684.271 1149.19,672.875C1149.19,661.478 1181.5,652.226 1221.29,652.226C1238.61,652.226 1254.51,653.978 1266.95,656.897L1291.59,656.897C1294.99,646.821 1303.24,639.703 1312.87,639.703C1322.5,639.703 1330.76,646.821 1334.15,656.897L1359.08,656.897C1371.85,653.609 1388.74,651.608 1407.24,651.608C1447.03,651.608 1479.34,660.861 1479.34,672.257C1479.34,683.653 1447.03,692.906 1407.24,692.906C1388.1,692.906 1370.7,690.766 1357.79,687.276L1334.38,687.276L1334.38,715.726L1291.37,715.726L1291.37,687.276L1272.94,687.276Z" style="fill:rgb(141,141,141);"/>
    </g>
    <g transform="matrix(1,0,0,1.3041,-376.73,-524.857)">
        <g transform="matrix(153.363,0,0,153.363,2204.46,1680.88)">
        </g>
        <text x="1881.79px" y="1680.88px" style="font-family:'AvenirNext-Bold', 'Avenir Next', sans-serif;font-weight:700;font-size:153.363px;">INC.</text>
    </g>
    <g transform="matrix(1,0,0,1.46227,-1583.7,-783.154)">
        <g transform="matrix(200,0,0,200,3863.44,1536.9)">
        </g>
        <text x="2604.64px" y="1536.9px" style="font-family:'AvenirNext-Bold', 'Avenir Next', sans-serif;font-weight:700;font-size:200px;stroke:black;stroke-width:0.8px;stroke-linecap:butt;stroke-miterlimit:2;">HO<tspan x="2925.24px " y="1536.9px ">V</tspan>ERHA<tspan x="3610.64px 3758.24px " y="1536.9px 1536.9px ">UL</tspan></text>
    </g>
</svg>
